:SAMPLES-PER-SECOND 30
:FULLY-SPECIFIED
:DEGREES
246
root  -22.3572 34.9073 -3.00484 -39.6315 83.996 -44.1315
RightUpLeg  -24.3726 -12.1701 8.07923
RightLeg  59.974 -4.1661 -8.30288
RightFoot  -33.673 -0.182318 0.22971
RightToes  -4.65663e-010 0 -3.6325e-017
Spine  33.6006 -4.00829 19.3835
Spine1  5.81511 0.588056 4.62227
HEad  -27.1517 -0.0980747 -10.8467
LeftShoulder1  10.2173 -15.2763 -47.4856
LeftArm  -12.3655 8.29068 -25.4589
LeftForeArm  42.97 -21.837 -2.71405
LeftHand  -0.244104 0.0205437 5.32207
RightShoulder  6.25172 11.322 36.18
RightArm  -16.2335 24.4713 25.8359
RightForeArm  -4.35221 34.5001 7.99003
RightHand  -5.60866 14.6522 -31.975
LeftUpLeg  -43.2438 2.09209 1.93522
LeftLeg  90.7363 -0.857745 12.4733
LeftFoot  -9.38148 0.017966 2.35021
LeftToes  -5.82109e-011 -4.83791e-012 -1.00937e-011
247
root  -19.6984 35.8175 -2.76998 -18.2217 84.3395 -22.5194
RightUpLeg  -15.9858 -12.9459 4.1086
RightLeg  53.238 -3.51899 -5.49274
RightFoot  -33.52 0.0345656 1.32092
RightToes  -4.65663e-010 0 -3.6325e-017
Spine  31.8867 -1.77858 16.1434
Spine1  4.31657 1.60529 4.5726
HEad  -25.2456 -0.992875 -8.71843
LeftShoulder1  9.83488 -14.7926 -46.9042
LeftArm  -15.7044 14.9032 -20.8268
LeftForeArm  39.282 -19.1771 -2.65684
LeftHand  -0.244104 0.0205437 5.32207
RightShoulder  5.92081 10.8055 35.4097
RightArm  -16.6911 22.7348 25.1793
RightForeArm  -0.020371 46.6618 11.9481
RightHand  -5.79559 14.9123 -32.5771
LeftUpLeg  -49.7222 1.81943 0.395341
LeftLeg  84.0575 0.759897 14.0963
LeftFoot  -10.6905 0.0447338 2.91848
LeftToes  -5.82109e-011 -4.83791e-012 -1.00937e-011
248
root  -16.8242 37.1566 -2.5446 7.58931 84.3905 3.38519
RightUpLeg  -6.59192 -13.6667 -0.976428
RightLeg  43.5399 -1.85166 -2.24752
RightFoot  -29.0917 0.442469 4.23393
RightToes  -4.65663e-010 0 -3.6325e-017
Spine  29.8404 0.301101 12.7084
Spine1  2.64546 2.70863 3.34567
HEad  -21.5864 -2.79884 -5.8895
LeftShoulder1  9.17251 -14.0402 -45.5805
LeftArm  -17.6968 20.9034 -16.7032
LeftForeArm  34.3951 -17.2179 -2.3265
LeftHand  -0.244104 0.0205437 5.32207
RightShoulder  5.76041 10.4563 35.2966
RightArm  -15.8934 17.8381 24.1083
RightForeArm  5.77459 57.5278 17.463
RightHand  -6.05428 15.345 -33.2664
LeftUpLeg  -53.2949 2.30536 -1.93778
LeftLeg  73.9652 3.6505 15.2762
LeftFoot  -12.5106 0.0886973 1.3918
LeftToes  -5.82109e-011 -4.83791e-012 -1.00937e-011
249
root  -13.7896 38.7059 -2.39283 23.4253 83.0331 18.7069
RightUpLeg  1.40276 -14.1637 -5.67594
RightLeg  33.2924 1.26281 0.633883
RightFoot  -17.3113 0.291089 8.42404
RightToes  -4.65663e-010 0 -3.6325e-017
Spine  27.025 2.27175 10.5398
Spine1  1.35551 4.32073 0.724737
HEad  -16.3653 -5.29941 -3.13228
LeftShoulder1  8.28353 -13.1883 -43.1522
LeftArm  -17.8101 26.0978 -13.4298
LeftForeArm  30.1515 -15.8223 -1.92839
LeftHand  -0.244104 0.0205437 5.32207
RightShoulder  5.58836 10.0702 35.2045
RightArm  -13.9955 11.1067 23.5366
RightForeArm  12.3353 65.4491 24.5005
RightHand  -6.34456 15.6778 -34.2487
LeftUpLeg  -54.5605 4.33131 -4.09676
LeftLeg  61.3295 6.63082 13.6286
LeftFoot  -13.0897 0.0771012 -0.175386
LeftToes  -5.82109e-011 -4.83791e-012 -1.00937e-011
250
root  -10.6828 40.1612 -2.30818 22.8578 81.2377 17.3192
RightUpLeg  6.35458 -15.0676 -9.00744
RightLeg  25.875 4.34708 2.10519
RightFoot  0.177826 -1.08419 11.0549
RightToes  -4.65663e-010 0 -3.6325e-017
Spine  23.6616 4.01636 9.51159
Spine1  0.668048 6.01376 -1.46338
HEad  -10.2779 -7.24394 -1.25549
LeftShoulder1  7.24853 -12.2428 -39.7889
LeftArm  -16.7032 31.7631 -10.8923
LeftForeArm  29.0476 -16.0028 -1.7582
LeftHand  -0.244104 0.0205437 5.32207
RightShoulder  5.30028 9.51534 34.7527
RightArm  -10.1059 4.27198 23.5524
RightForeArm  18.9819 70.7866 33.1148
RightHand  -6.11259 14.8991 -34.2525
LeftUpLeg  -54.2063 7.50966 -5.23677
LeftLeg  47.5651 7.39719 9.07931
LeftFoot  -12.2612 0.0674957 -0.857014
LeftToes  -5.82109e-011 -4.83791e-012 -1.00937e-011
251
root  -7.53471 41.2553 -2.25501 14.4873 79.9334 9.01837
RightUpLeg  9.56973 -16.3 -10.8908
RightLeg  23.2791 4.73988 2.03173
RightFoot  14.6233 -2.27232 10.352
RightToes  -4.65663e-010 0 -3.6325e-017
Spine  20.2548 5.14081 8.60255
Spine1  0.829786 6.67368 -1.36048
HEad  -4.4391 -7.38174 -0.544424
LeftShoulder1  6.15584 -11.0573 -36.1808
LeftArm  -15.2455 38.65 -8.6001
LeftForeArm  30.4707 -17.8294 -1.92671
LeftHand  -0.244104 0.0205437 5.32207
RightShoulder  4.93233 8.95021 33.6579
RightArm  -4.293 -1.16637 23.8535
RightForeArm  28.0107 74.6585 44.3881
RightHand  -5.14451 12.6207 -32.5819
LeftUpLeg  -51.9433 10.6343 -4.87863
LeftLeg  34.9666 6.01987 4.83904
LeftFoot  -11.9557 0.0541289 -2.87702
LeftToes  -5.82109e-011 -4.83791e-012 -1.00937e-011
